<svg width="285px" height="264px" viewBox="0 0 285 264" version="1.1" xmlns="http://www.w3.org/2000/svg" xmlns:xlink="http://www.w3.org/1999/xlink">
    <g id="Page-1" stroke="none" stroke-width="1" fill="none" fill-rule="evenodd">
        <g id="spot-search-copy-8" transform="translate(-65.000000, -88.000000)" fill="#000000">
            <path d="M65,88 L350,88 L350,352 L65,352 L65,88 Z M74.108,109.564 L74.108,205 L137.996,205 L137.996,183.88 L99.848,183.88 L99.848,109.564 L74.108,109.564 Z M193.568,206.32 C221.684,206.32 239.636,187.048 239.636,157.48 C239.636,127.648 221.288,108.244 193.568,108.244 C165.716,108.244 147.236,127.648 147.236,157.48 C147.236,187.18 165.188,206.32 193.568,206.32 Z M193.568,185.728 C183.008,185.728 175.22,178.468 175.22,157.876 C175.22,136.624 183.008,128.836 193.568,128.836 C204.128,128.836 211.784,136.624 211.784,157.876 C211.784,178.468 204.128,185.728 193.568,185.728 Z M296.66,206.32 C312.368,206.32 319.1,199.324 323.852,194.44 L323.852,205 L340.748,205 L340.748,154.576 L297.056,154.312 L297.056,171.604 L313.688,171.604 L312.5,175.036 C311.18,179.392 305.9,184.012 298.64,184.012 C290.456,184.012 279.5,180.184 279.5,156.82 C279.5,136.228 288.08,129.496 297.584,129.496 C306.56,129.496 311.444,135.436 313.16,143.224 L339.956,143.224 C339.692,125.404 323.852,108.244 298.244,108.244 C270.788,108.244 251.516,127.912 251.516,157.612 C251.516,186.388 269.468,206.32 296.66,206.32 Z M74.108,241.564 L74.108,337 L99.848,337 L99.848,241.564 L74.108,241.564 Z M181.16,241.564 L181.16,294.76 L143.936,241.564 L118.064,241.564 L118.064,337 L143.804,337 L143.804,280.108 L183.668,337 L206.9,337 L206.9,241.564 L181.16,241.564 Z" id="Combined-Shape"></path>
        </g>
    </g>
</svg>