<svg width="351px" height="264px" viewBox="0 0 351 264" version="1.1" xmlns="http://www.w3.org/2000/svg" xmlns:xlink="http://www.w3.org/1999/xlink">
    <g id="Page-1" stroke="none" stroke-width="1" fill="none" fill-rule="evenodd">
        <g id="spot-search-copy-8" transform="translate(-65.000000, -88.000000)" fill="#000000">
            <path d="M65,88 L416,88 L416,352 L65,352 L65,88 Z M113.444,206.32 C137.336,206.32 155.288,194.176 155.288,177.94 C155.288,168.436 153.572,151.276 125.852,146.524 L110.936,144.016 C102.62,142.564 100.508,140.056 100.508,135.7 C100.508,132.268 103.544,128.176 113.576,128.176 C122.552,128.176 127.832,131.08 128.624,138.472 L154.628,138.472 C152.912,122.764 136.412,108.376 113.048,108.376 C91.004,108.376 72.788,119.596 73.052,138.868 C73.316,155.104 83.216,164.608 98.132,166.984 L113.048,169.492 C121.1,170.812 129.02,172.132 129.02,177.94 C129.02,184.672 121.364,186.652 113.312,186.652 C104.336,186.652 98.396,182.692 96.944,175.96 L70.28,175.96 C71.996,197.212 93.38,206.32 113.444,206.32 Z M169.676,109.564 L169.676,205 L195.416,205 L195.416,109.564 L169.676,109.564 Z M255.608,206.32 C271.316,206.32 278.048,199.324 282.8,194.44 L282.8,205 L299.696,205 L299.696,154.576 L256.004,154.312 L256.004,171.604 L272.636,171.604 L271.448,175.036 C270.128,179.392 264.848,184.012 257.588,184.012 C249.404,184.012 238.448,180.184 238.448,156.82 C238.448,136.228 247.028,129.496 256.532,129.496 C265.508,129.496 270.392,135.436 272.108,143.224 L298.904,143.224 C298.64,125.404 282.8,108.244 257.192,108.244 C229.736,108.244 210.464,127.912 210.464,157.612 C210.464,186.388 228.416,206.32 255.608,206.32 Z M380.348,109.564 L380.348,162.76 L343.124,109.564 L317.252,109.564 L317.252,205 L342.992,205 L342.992,148.108 L382.856,205 L406.088,205 L406.088,109.564 L380.348,109.564 Z M156.476,297.532 L156.476,241.564 L130.472,241.564 L130.472,298.588 C130.472,311.788 123.212,316.804 115.292,316.804 C107.24,316.804 100.112,311.788 100.112,298.588 L100.112,241.564 L74.108,241.564 L74.108,297.532 C74.108,321.82 84.536,338.32 115.292,338.32 C146.048,338.32 156.476,321.82 156.476,297.532 Z M172.844,337 L198.584,337 L198.584,304.132 L213.896,304.132 C234.884,304.132 248.084,292.78 248.084,273.904 C248.084,253.18 231.716,241.564 210.596,241.564 L172.844,241.564 L172.844,337 Z M198.32,284.992 L198.32,260.572 L213.104,260.572 C218.78,260.572 224.456,265.984 224.456,272.584 C224.456,278.788 219.572,284.992 213.104,284.992 L198.32,284.992 Z" id="Combined-Shape"></path>
        </g>
    </g>
</svg>